<svg xmlns="http://www.w3.org/2000/svg" width="940" height="480" viewBox="0 0 940 480"><path opacity=".25" fill="#6FA1CC" d="M0 409.807l12.212-8.399 28.571 20.433 3.776-1.282 8.053 1.913 10.746-6.842 14.527-1.265 14.354-4.981 9.691-.965 6.772-1.863 11.328 10.058 7.521-2.009 2.46 2.541 14.67-10.896 3.697.197 8.64-2.133 21.087-13.036 9.422-9.807 41.097-26.725 27.391-20.044 7.85-8.108 13.308.71 20.433-.764 6.561-4.84 11.322 3.199 4.629 3.581 20.965-10.744 10.016 6.837 6.832-2.973 4.959 4.344s10.588-3.885 12.086-4.177c1.499-.291 14.592 4.487 14.592 4.487l33.064-8.247 30.074-14.709 47.203-23.063 26.635 8.094 34.154 19.988 30.363 14.597 13.311.709 28.377-10.721 19.314-14.54 15.807-11.394 11.832.631 11.336 9.874 10.688-5.732 11.688 10.264 16.756-1.33 23.994-5.023 56.184 44.892 20.699 8.147 24.621 17.997 36.521 3.432 17.549 4.644 30.262 31.548v73.688h-940v-70.193z"/></svg>