<?xml version="1.0" encoding="UTF-8"?>
<!-- Generator: Adobe Illustrator 16.0.4, SVG Export Plug-In . SVG Version: 6.00 Build 0)  -->
<!DOCTYPE svg PUBLIC "-//W3C//DTD SVG 1.1//EN" "http://www.w3.org/Graphics/SVG/1.1/DTD/svg11.dtd">
<svg version="1.1" id="Layer_1" xmlns="http://www.w3.org/2000/svg" xmlns:xlink="http://www.w3.org/1999/xlink" x="0px" y="0px" width="60px" height="84px" viewBox="0 0 60 84" enable-background="new 0 0 60 84" xml:space="preserve">
<g>
	<g>
		<g>
			<path fill="#E6E6E6" d="M6.731,30.05c0,17.334,7.795,31.316,14.381,40.044h2.567c-4.702-8.726-10.269-22.708-10.269-40.044     C13.411,13.449,20.891,0,30.11,0C17.2,0,6.731,13.449,6.731,30.05z"/>
			<path fill="#E6E6E6" d="M33.451,30.05c0,17.33-1.115,31.312-2.055,40.044h2.568c2.822-8.726,6.166-22.71,6.166-40.044     C40.131,13.449,35.641,0,30.11,0C31.951,0,33.451,13.449,33.451,30.05z"/>
			<path fill="#E6E6E6" d="M46.809,30.05c0,17.328-5.566,31.316-10.27,40.044h2.566c6.59-8.729,14.385-22.713,14.385-40.044     C53.49,13.449,43.02,0,30.11,0C39.33,0,46.809,13.449,46.809,30.05z"/>
			<path fill="#E6E6E6" d="M20.09,30.05c0,17.335,3.341,31.317,6.162,40.044h2.572c-0.942-8.729-2.055-22.711-2.055-40.044     C26.77,13.449,28.26,0,30.11,0C24.571,0,20.09,13.449,20.09,30.05z"/>
			<path fill="#CC3A0C" d="M53.49,30.05c0,17.331-7.795,31.315-14.385,40.044h2.346c8.469-8.724,18.5-22.712,18.5-40.054     c0-15.555-11.816-28.349-26.961-29.899C32.041,0.05,31.082,0,30.11,0C43.02,0,53.49,13.449,53.49,30.05z"/>
			<path fill="#CC3A0C" d="M40.131,30.05c0,17.334-3.344,31.318-6.166,40.044h2.574c4.703-8.728,10.27-22.716,10.27-40.044     C46.809,13.449,39.33,0,30.11,0C35.641,0,40.131,13.449,40.131,30.05z"/>
			<path fill="#CC3A0C" d="M26.77,30.05c0,17.333,1.112,31.315,2.055,40.044h2.572c0.939-8.731,2.055-22.714,2.055-40.044     c0-16.601-1.5-30.05-3.341-30.05C28.26,0,26.77,13.449,26.77,30.05z"/>
			<path fill="#CC3A0C" d="M13.411,30.05c0,17.336,5.566,31.318,10.269,40.044h2.573c-2.821-8.727-6.162-22.709-6.162-40.044     C20.09,13.449,24.571,0,30.11,0C20.891,0,13.411,13.449,13.411,30.05z"/>
			<path fill="#CC3A0C" d="M6.731,30.05C6.731,13.449,17.2,0,30.11,0C13.51,0,0.049,13.449,0.049,30.05     c0,17.334,10.021,31.317,18.49,40.044h2.572C14.526,61.366,6.731,47.384,6.731,30.05z"/>
		</g>
		<rect x="18.598" y="70.094" fill="#E6E6E6" width="22.867" height="2.689"/>
		<line fill="none" stroke="#E6E6E6" stroke-width="0.5" stroke-miterlimit="10" x1="33.748" y1="77.378" x2="37.986" y2="72.549"/>
		<line fill="none" stroke="#E6E6E6" stroke-width="0.5" stroke-miterlimit="10" x1="26.356" y1="77.378" x2="22.12" y2="72.549"/>
		<line fill="none" stroke="#E6E6E6" stroke-width="0.5" stroke-miterlimit="10" x1="32.098" y1="76.595" x2="34.23" y2="72.18"/>
		<line fill="none" stroke="#E6E6E6" stroke-width="0.5" stroke-miterlimit="10" x1="28.098" y1="76.595" x2="25.958" y2="72.132"/>
		<path fill="#E6E6E6" d="M24.266,76.5v2h0.992v3.016c0,1.1,0.9,2,2,2h6.015c1.102,0,2-0.9,2-2V78.5h0.992v-2H24.266z"/>
	</g>
	<path opacity="0.2" fill="#FFFFFF" d="M30.108,70.094V0C13.508,0.001,0.053,13.458,0.053,30.058   c0,17.327,10.018,31.307,18.488,40.036H30.108z"/>
</g>
</svg>