<svg xmlns="http://www.w3.org/2000/svg" width="95" height="50" viewBox="0 0 95 50"><path opacity=".25" fill="#fff" d="M90 19.947l-.049.006v-.006h-25.275c-2.512-.264-4.477-2.365-4.477-4.948 0-2.762 2.238-5 5-5h-.199c2.761 0 5-2.238 5-5s-2.239-5-5-5h-35.001c-2.761.001-4.999 2.239-4.999 5.001s2.238 5 4.999 5h.101v.01c2.712.054 4.9 2.261 4.9 4.99 0 2.604-2 4.713-4.541 4.948h-25.459c-2.762 0-5 2.238-5 5s2.238 5 5 5h40.1v.01c2.713.055 4.9 2.264 4.9 4.99 0 2.729-2.188 4.936-4.9 4.99v.01h-.021c-2.76 0-5 2.238-5 5s2.24 5 5 5h29.921c2.761 0 5-2.238 5-5s-2.239-5-5-5c-2.762 0-5-2.238-5-5s2.238-5 5-5h14.951v-.004l.049.004c2.761 0 5-2.238 5-5s-2.239-5.001-5-5.001z"/></svg>