<svg xmlns="http://www.w3.org/2000/svg" width="37.193" height="44.126" viewBox="0 0 37.193 44.126"><rect x="1" y="1" fill="#ccc" width="1" height="42"/><rect y="1" fill="#4D4D4D" width="1" height="42"/><path fill="#4D4D4D" d="M0 43.126c0 .552.447 1 1 1v-2c-.553 0-1 .448-1 1z"/><path fill="#ccc" d="M1 42.126v2c.551 0 1-.448 1-1s-.449-1-1-1z"/><g fill="#ccc"><path d="M0 1c0 .552.447 1 1 1v-2c-.553 0-1 .448-1 1zM1 0v2c.551 0 1-.448 1-1s-.449-1-1-1z"/></g><polygon fill="#7F2108" points="37.193,28 18.361,28 18.361,7.172 37.193,7.172 31.25,17.586"/><polygon fill="#3F0B06" points="18.361,23.833 18.361,28 28.777,23.833"/><rect x="1" y="3" fill="#CC3A0C" width="27.777" height="20.833"/><circle fill="#fff" cx="14.911" cy="13.438" r="6.944"/><circle fill="#CC3A0C" cx="14.911" cy="13.438" r="5.556"/><circle fill="#fff" cx="14.91" cy="13.438" r="2.777"/><rect x="1.01" y="3.014" opacity=".15" fill="#fff" width="27.777" height="10.432"/></svg>